<svg width="150" height="150" viewBox="0 0 150 150" fill="none" xmlns="http://www.w3.org/2000/svg">
<circle cx="75" cy="75" r="74.5" fill="white" stroke="#0066FF"/>
<path d="M104.5 72.5V86.25C104.5 87.4647 104.261 88.6678 103.796 89.79C103.331 90.9122 102.65 91.9321 101.791 92.791C100.932 93.6499 99.9122 94.331 98.79 94.7959C97.6678 95.2608 96.4647 95.5 95.25 95.5H54.75C52.2967 95.5 49.9437 94.5257 48.209 92.791C46.4743 91.0563 45.5 88.7033 45.5 86.25V72.5H104.5ZM86.25 82C85.5207 82 84.8214 82.2899 84.3057 82.8057C83.7899 83.3214 83.5 84.0207 83.5 84.75C83.5 85.4793 83.7899 86.1786 84.3057 86.6943C84.8214 87.2101 85.5207 87.5 86.25 87.5H93.75C94.4793 87.5 95.1786 87.2101 95.6943 86.6943C96.2101 86.1786 96.5 85.4793 96.5 84.75C96.5 84.0207 96.2101 83.3214 95.6943 82.8057C95.1786 82.2899 94.4793 82 93.75 82H86.25ZM54.75 54.5H95.25C96.4647 54.5 97.6678 54.7392 98.79 55.2041C99.9122 55.669 100.932 56.3501 101.791 57.209C102.65 58.0679 103.331 59.0878 103.796 60.21C104.261 61.3322 104.5 62.5353 104.5 63.75V67H45.5V63.75C45.5 61.2967 46.4743 58.9437 48.209 57.209C49.9437 55.4743 52.2967 54.5 54.75 54.5Z" fill="#0066FF" stroke="#0066FF"/>
</svg>
